<svg width="49" height="47" viewBox="0 0 49 47" fill="none" xmlns="http://www.w3.org/2000/svg">
<path d="M0.583374 8.03126C0.583374 6.05595 1.36806 4.16154 2.76482 2.76479C4.16157 1.36803 6.05598 0.583344 8.03129 0.583344H34.3855C36.3608 0.583344 38.2552 1.36803 39.6519 2.76479C41.0487 4.16154 41.8334 6.05595 41.8334 8.03126V14.3563C40.6833 14.2367 39.5213 14.3111 38.3959 14.5763V12.0417H4.02087V34.3854C4.02087 36.5992 5.81754 38.3958 8.03129 38.3958H26.3302L25.3196 40.1467C25.0164 40.6707 24.7998 41.2403 24.678 41.8333H8.03129C6.05598 41.8333 4.16157 41.0487 2.76482 39.6519C1.36806 38.2551 0.583374 36.3607 0.583374 34.3854V8.03126ZM8.03129 4.02084C6.96766 4.02084 5.9476 4.44337 5.1955 5.19547C4.4434 5.94757 4.02087 6.96763 4.02087 8.03126V8.60418H38.3959V8.03126C38.3959 6.96763 37.9734 5.94757 37.2212 5.19547C36.4692 4.44337 35.4491 4.02084 34.3855 4.02084H8.03129ZM41.5057 16.625C39.9773 16.4817 38.4399 16.7804 37.0765 17.4857C35.7131 18.191 34.5809 19.2731 33.8148 20.6033C33.0436 21.9379 32.6732 23.4663 32.748 25.0058C32.8228 26.5453 33.3396 28.0307 34.2365 29.2842L27.3042 41.2925C26.8936 42.0581 26.7971 42.9534 27.0351 43.7888C27.2731 44.6243 27.8269 45.3343 28.5793 45.7686C29.3316 46.2029 30.2235 46.3273 31.066 46.1154C31.9085 45.9036 32.6354 45.3722 33.093 44.6338L40.0367 32.6025C41.6253 32.7468 43.2209 32.4141 44.6195 31.6469C46.0181 30.8798 47.1561 29.713 47.8882 28.2958C48.6204 26.8785 48.9133 25.2752 48.7295 23.6906C48.5458 22.1061 47.8937 20.6123 46.8567 19.4002L43.0755 25.9498C42.9028 26.2595 42.6702 26.5317 42.3914 26.7507C42.1125 26.9697 41.7928 27.1311 41.451 27.2254C41.1092 27.3197 40.7521 27.3451 40.4004 27.3001C40.0487 27.2551 39.7094 27.1407 39.4023 26.9633C39.0953 26.786 38.8265 26.5494 38.6117 26.2673C38.397 25.9852 38.2404 25.6632 38.1513 25.32C38.0621 24.9768 38.042 24.6193 38.0923 24.2683C38.1425 23.9173 38.2621 23.5798 38.444 23.2754L42.2253 16.7258C41.987 16.6813 41.7469 16.6477 41.5057 16.625ZM19.6111 17.1819C19.7637 17.3483 19.8821 17.5431 19.9594 17.7553C20.0367 17.9674 20.0715 18.1927 20.0617 18.4183C20.0519 18.6439 19.9978 18.8654 19.9024 19.07C19.807 19.2747 19.6722 19.4585 19.5057 19.6111L14.0125 24.6458L19.5057 29.6806C19.8418 29.9888 20.0417 30.4178 20.0615 30.8734C20.0812 31.3289 19.9192 31.7737 19.6111 32.1098C19.3029 32.4459 18.8739 32.6458 18.4183 32.6656C17.9628 32.6854 17.518 32.5234 17.1819 32.2152L10.3069 25.9131C10.1312 25.7521 9.99083 25.5563 9.89482 25.3381C9.79881 25.12 9.74923 24.8842 9.74923 24.6458C9.74923 24.4075 9.79881 24.1717 9.89482 23.9536C9.99083 23.7354 10.1312 23.5396 10.3069 23.3786L17.1819 17.0765C17.3483 16.9238 17.5431 16.8055 17.7553 16.7281C17.9674 16.6508 18.1928 16.6161 18.4183 16.6259C18.6439 16.6356 18.8654 16.6898 19.07 16.7852C19.2747 16.8806 19.4585 17.0154 19.6111 17.1819ZM26.3807 32.2152L31.0098 27.9711C30.2644 25.8117 30.258 23.4658 30.9915 21.3023L26.3807 17.0765C26.2142 16.9239 26.0194 16.8056 25.8073 16.7283C25.5951 16.651 25.3698 16.6163 25.1443 16.6261C24.9187 16.6359 24.6972 16.69 24.4926 16.7854C24.2879 16.8807 24.1041 17.0155 23.9515 17.1819C23.7989 17.3483 23.6806 17.5432 23.6033 17.7553C23.5261 17.9674 23.4913 18.1927 23.5011 18.4183C23.5109 18.6439 23.565 18.8653 23.6604 19.07C23.7558 19.2746 23.8905 19.4585 24.0569 19.6111L29.55 24.6458L24.0569 29.6806C23.7208 29.9888 23.5209 30.4178 23.5011 30.8734C23.4813 31.3289 23.6434 31.7737 23.9515 32.1098C24.2596 32.4459 24.6887 32.6458 25.1443 32.6656C25.5998 32.6854 26.0446 32.5234 26.3807 32.2152Z" fill="#F3F1FF"/>
</svg>
